<?xml version="1.0" encoding="utf-8"?>
<!-- Svg Vector Icons : http://www.onlinewebfonts.com/icon -->
<!DOCTYPE svg PUBLIC "-//W3C//DTD SVG 1.1//EN" "http://www.w3.org/Graphics/SVG/1.1/DTD/svg11.dtd">
<svg version="1.1" xmlns="http://www.w3.org/2000/svg" xmlns:xlink="http://www.w3.org/1999/xlink" x="0px" y="0px" viewBox="0 0 1000 1000" enable-background="new 0 0 1000 1000" xml:space="preserve">
<metadata> Svg Vector Icons : http://www.onlinewebfonts.com/icon </metadata>
<g><g transform="translate(0.000000,512.000000) scale(0.100000,-0.100000)"><path d="M8123.2,4896.4c-192.9-192.9-210.4-216.3-210.4-282.5c0-95.5,70.1-169.5,159.8-169.5c54.6,0,91.6,29.2,282.5,220.2c247.4,247.4,263,284.5,163.6,385.8c-40.9,39-76,56.5-120.8,56.5C8341.4,5106.8,8304.3,5077.5,8123.2,4896.4z"/><path d="M9637,5069.8c-103.3-64.3-882.6-865-896.2-921.5c-27.3-111,89.6-227.9,200.7-200.7c58.4,13.6,884.5,822.2,931.3,909.9c40.9,77.9,33.1,128.6-29.2,192.9C9777.3,5116.5,9718.8,5122.4,9637,5069.8z"/><path d="M5633.2,4892.5c-85.7-85.7-56.5-229.9,58.5-268.9c161.7-56.5,292.2,150,169.5,265C5802.7,4945.1,5687.8,4947,5633.2,4892.5z"/><path d="M7293.2,4886.6c-83.8-87.7-40.9-229.9,79.9-272.8c58.4-21.4,159.8,33.1,187.1,101.3c31.2,70.1,1.9,165.6-58.4,196.8C7437.3,4947,7338,4935.3,7293.2,4886.6z"/><path d="M4637.7,4719.1c-33.1-35.1-56.5-77.9-56.5-109.1c0-74,97.4-165.6,175.3-165.6c159.8,0,218.2,229.9,76,302C4750.7,4789.2,4702,4781.4,4637.7,4719.1z"/><path d="M6301.5,4557.4c-58.4-66.2-66.2-107.2-37-179.2c35.1-85.7,124.7-122.7,206.5-89.6c72.1,29.2,97.4,72.1,97.4,161.7C6568.4,4584.6,6391.1,4654.8,6301.5,4557.4z"/><path d="M5623.5,4206.7c-56.5-68.2-56.5-148.1,1.9-212.4c68.2-74,235.8-54.6,268.9,31.2c46.8,124.7-25.3,243.5-148.1,243.5C5691.7,4269,5664.4,4255.4,5623.5,4206.7z"/><path d="M7182.1,4243.7l-97.4-23.4l-5.8-134.4c-5.8-113,1.9-150,46.7-239.6c120.8-247.4,430.6-311.7,631.3-130.5c107.2,97.4,136.4,171.4,136.4,354.6v153.9l-111.1,23.4C7643.9,4274.8,7310.7,4272.9,7182.1,4243.7z"/><path d="M1150.2,4056.6c-62.3-64.3-70.1-113-27.3-194.8c74-144.2,302-83.8,302,79.9c-2,72.1-27.3,114.9-91.6,148.1C1265.2,4126.8,1210.6,4117,1150.2,4056.6z"/><path d="M6607.4,4002.1c-157.8-105.2-350.7-307.8-455.9-479.3c-436.4-705.3-249.4-1624.9,428.6-2110c111.1-79.9,358.5-208.5,372.1-194.8c3.9,3.9-2,44.8-11.7,91.6c-11.7,46.8-21.4,153.9-21.4,237.7c0,391.6,241.6,722.8,625.4,851.4c103.3,35.1,157.8,40.9,319.5,35.1c169.5-5.8,212.4-15.6,327.3-68.2c243.5-114.9,401.4-286.4,489-531.9l44.8-122.7l58.5,85.7c87.7,128.6,171.4,303.9,224.1,465.6c39,126.6,44.8,187,44.8,438.4c0,251.3-5.8,313.7-44.8,438.4c-93.5,298.1-290.3,592.3-516.3,773.5c-130.5,103.3-228,169.5-237.7,157.8c-1.9-3.9-15.6-66.2-27.3-142.2c-31.2-177.3-118.8-339-249.4-457.8c-142.2-130.5-280.5-181.2-492.9-183.1c-146.1-1.9-181.2,5.8-296.1,60.4c-241.6,114.9-409.1,346.8-436.4,605.9c-7.8,66.3-19.5,120.8-25.3,120.8C6720.4,4074.2,6665.8,4041.1,6607.4,4002.1z"/><path d="M4119.4,3916.4c-233.8-27.3-520.2-91.6-779.3-177.3c-249.4-81.8-818.3-350.7-835.8-393.6c-5.8-13.6,31.2-107.2,77.9-208.5c126.6-266.9,167.6-452,185.1-845.6l15.6-331.2l146.1-321.5c290.3-639,485.1-915.7,724.8-1030.6c76-37,533.8-128.6,551.4-111.1c3.9,3.9-15.6,23.4-42.9,44.8c-109.1,76-189,150-216.3,206.5c-35.1,64.3-183.1,781.3-183.1,878.7c0,83.8,68.2,148.1,157.8,148.1c122.7,0,146.1-44.8,233.8-479.3c44.8-212.4,87.7-395.5,99.4-407.2c11.7-11.7,39-7.8,77.9,15.6l60.4,35.1l70.1-66.2c39-35.1,107.2-76,152-89.6c103.3-29.2,161.7-101.3,161.7-198.7c0-62.3,9.7-79.9,54.5-103.3c74-39,132.5-105.2,169.5-192.9c17.5-40.9,42.9-77.9,58.5-83.8c15.6-5.8,76,11.7,136.4,40.9c134.4,66.2,229.9,60.4,426.7-29.2c74.1-33.1,190.9-74,261.1-91.6c157.8-39,233.8-113,403.3-387.7c190.9-309.8,218.2-344.8,323.4-426.7c159.8-122.7,181.2-163.7,189-348.8c7.8-181.2-23.4-325.4-140.3-637.1c-58.4-155.9-81.8-191-169.5-268.9c-56.5-48.7-189-206.5-296.1-352.6c-107.2-144.2-241.6-307.8-296.1-360.4c-307.8-300-781.3-559.2-962.5-526c-155.9,29.2-265,144.2-286.4,303.9c-9.7,76,1.9,111.1,99.4,309.8c142.2,288.3,204.6,475.4,204.6,613.7c0,111.1,0,111.1-134.4,251.3c-346.8,358.5-461.7,752-340.9,1159.2l29.2,99.4l-70.1,60.4c-66.2,58.5-126.6,200.7-126.6,298.1c0,95.4-40.9,187-95.5,216.3c-31.2,15.6-159.8,46.8-286.4,68.2c-280.6,48.7-381.9,79.9-502.7,155.9c-288.3,183.1-494.9,481.2-804.6,1159.2l-167.5,370.2L2438,2233c-9.7,231.8-25.3,393.6-46.8,477.3c-39,142.2-163.7,428.6-189,428.6c-31.2,0-364.3-292.2-504.6-442.3c-588.4-629.3-943-1371.6-1061.8-2217.2c-15.6-114.9-25.3-214.3-19.5-222.1c3.9-9.7,146.1-27.3,315.6-39c358.5-27.3,494.9-56.5,652.7-142.2C1723,2.2,1892.5-175,1970.4-327c54.6-111,155.9-459.8,155.9-537.7c-1.9-21.4-17.5-85.7-37-140.3l-35.1-103.3l111.1-105.2c179.2-171.4,391.6-298.1,917.7-545.5c196.8-93.5,278.6-142.2,309.8-187c23.4-33.1,89.6-115,148.1-179.3c56.5-66.2,126.6-163.6,157.8-218.2c54.6-99.4,54.6-101.3,52.6-420.8c-1.9-212.4-13.6-372.1-35.1-467.6c-33.1-152-177.3-469.5-259.1-566.9l-48.7-56.5l46.8-17.6c87.7-33.1,405.2-101.3,604-128.6c235.7-33.1,754-39,989.7-9.7c701.4,87.7,1359.9,352.6,1926.9,775.4c187,140.3,555.3,494.9,709.2,685.8c627.4,775.4,952.7,1811.9,874.8,2780.2c-21.4,245.5-105.2,757.9-130.5,781.3c-3.9,3.9-79.9-23.4-169.5-62.3c-89.6-37-206.5-77.9-259.1-91.6l-97.4-21.4l5.8-362.4c5.8-381.9-5.8-453.9-79.9-494.9c-64.3-33.1-150-21.4-200.7,25.3c-46.8,42.9-46.8,48.7-46.8,411.1v366.3h-95.5c-208.5,0-549.4,74-775.4,167.6c-13.6,5.8-44.8-31.2-72.1-85.7l-48.7-97.4l81.8-245.5c76-231.8,79.9-249.4,52.6-300c-58.4-103.3-183.1-128.6-259.1-52.6c-17.5,15.6-62.3,124.7-101.3,243.5l-72.1,214.3h-222.1c-212.4,0-226,2-270.8,48.7c-62.3,60.4-62.3,146.1-2,218.2c46.8,52.6,52.6,54.6,282.5,60.4l235.8,7.8l40.9,77.9l39,77.9l-200.7,189c-122.7,116.9-235.7,245.5-288.3,329.3c-48.7,77.9-95.5,140.3-103.3,140.3c-7.8,0-120.8-70.1-247.4-155.9c-278.6-185.1-319.5-198.7-405.2-126.6c-66.3,56.5-81.8,132.5-40.9,206.5c11.7,21.4,140.3,118.8,286.4,216.3c169.5,111,266.9,189,265,208.5c-1.9,17.5-15.6,99.4-35.1,181.2c-17.5,81.8-31.2,185.1-31.2,229.9v77.9h-210.4h-210.4l-155.9-228c-175.3-261.1-220.2-296.1-329.3-251.3c-74,31.2-116.9,107.2-99.4,179.2c5.8,23.4,64.3,122.7,128.6,220.2c64.3,97.4,116.9,185.1,116.9,194.8s-83.8,72.1-187,138.3c-101.3,68.2-192.9,138.3-204.6,157.8c-33.1,62.3-19.5,153.9,31.2,202.6c79.9,81.8,136.4,66.2,413-116.9l249.4-165.6h226c241.6,0,251.3,3.9,251.3,101.3c0,66.2,134.4,444.2,194.8,553.3c33.1,54.6,58.4,105.2,58.4,113c0,37-471.5,157.8-773.5,196.8C4855.9,3939.7,4355.2,3943.6,4119.4,3916.4z M5364.4,3398.1c48.7-44.8,62.3-130.5,27.3-196.8c-76-146.1-303.9-87.7-303.9,79.9c0,64.3,48.7,130.5,116.9,155.9C5245.5,3452.7,5325.4,3433.2,5364.4,3398.1z M5362.4,2225.3c33.1-35.1,56.5-77.9,56.5-109.1c0-74-97.4-165.6-175.4-165.6c-81.8,0-155.9,76-155.9,161.7C5087.7,2266.2,5253.3,2334.4,5362.4,2225.3z M5993.7,1432.3c37-15.6,87.7-107.2,87.7-163.7c0-58.4-103.3-155.9-161.7-155.9c-27.3,0-76,23.4-109.1,50.7C5662.5,1288.1,5808.6,1502.4,5993.7,1432.3z M7168.5,750.4c68.2-46.8,85.7-114.9,54.6-192.9c-74-173.4-303.9-124.7-303.9,66.2c0,60.4,11.7,85.7,50.6,116.9C7032.1,789.4,7108.1,793.3,7168.5,750.4z"/><path d="M9459.7,3563.7c-192.9-190.9-222.1-229.9-222.1-284.4c0-89.6,74-159.8,169.5-159.8c66.2,0,89.6,17.5,282.5,210.4c179.2,179.2,210.4,220.2,210.4,270.8c0,79.9-68.2,157.8-152,173.4C9685.7,3785.8,9674,3778,9459.7,3563.7z"/><path d="M9325.3,2589.6c-60.4-35.1-85.7-77.9-87.7-148.1c0-81.8,77.9-159.8,159.8-159.8c74,0,171.4,93.5,171.4,165.6c0,64.3-97.4,165.6-159.8,165.6C9383.7,2613,9346.7,2601.3,9325.3,2589.6z"/><path d="M7565.9,2046c-194.8-95.5-315.6-282.5-315.6-485.1c0-107.2,48.7-407.2,70.1-426.7c5.9-5.8,105.2-9.7,218.2-7.8c161.7,1.9,247.4,13.6,383.8,54.6c171.4,50.7,381.9,150,475.4,226l48.7,39l-35.1,130.5c-17.5,72.1-52.6,169.5-74,216.3C8203,2075.2,7852.4,2190.2,7565.9,2046z"/><path d="M8623.9,1395.3c-126.6-126.6,17.5-337.1,177.3-259.1c111.1,52.6,134.4,181.2,46.8,268.9C8791.4,1461.5,8684.3,1455.7,8623.9,1395.3z"/><path d="M9286.3,1395.3c-68.2-66.2-64.3-152,7.8-226c35.1-33.1,77.9-56.5,109.1-56.5c62.3,0,165.6,95.5,165.6,155.9c0,56.5-50.7,148.1-87.7,163.7C9412.9,1457.6,9333,1444,9286.3,1395.3z"/><path d="M8797.3,734.8c-122.8-103.3-31.2-302,126.6-276.7c87.7,13.6,138.3,74,138.3,161.7C9062.2,760.1,8906.4,830.3,8797.3,734.8z"/><path d="M4590.9,169.8c13.6-33.1,31.2-111,39-175.4c11.7-91.6,25.3-122.7,72.1-165.6c138.3-120.8,155.9-239.6,83.8-516.3c-70.1-265,19.5-520.2,280.6-796.9c179.2-190.9,192.9-214.3,216.3-356.5c33.1-198.7-39-477.3-212.4-820.2c-42.9-89.6-79.9-165.6-79.9-169.5c0-17.5,165.6,48.7,272.8,109.1c255.2,142.2,442.3,321.5,656.6,619.6c81.8,113,206.5,266.9,278.6,340.9c122.7,128.6,132.5,148.1,198.7,350.7c39,118.8,76,251.3,81.8,298.1c11.7,76,7.8,87.7-40.9,126.6c-134.4,109.1-259.1,259.1-374.1,452c-161.7,270.8-216.3,333.2-309.8,350.7c-39,5.8-144.2,42.9-229.9,79.9l-159.7,68.2l-91.6-50.7c-130.5-68.2-286.4-68.2-391.6,2c-91.6,62.3-116.9,91.6-161.7,192.9c-23.4,52.6-54.6,85.7-95.5,99.4l-58.4,21.4L4590.9,169.8z"/><path d="M606.6-221.8c0-302,77.9-732.6,196.8-1089.1c204.6-607.9,545.5-1145.6,1022.9-1609.3c329.3-319.5,678-561.1,1071.6-742.3l167.6-77.9l76,83.8c99.4,111.1,226,366.3,253.3,512.4c11.7,64.3,23.4,231.9,25.3,374.1c1.9,290.3,11.7,266.9-206.5,514.3C3110.2-2137,3079-2117.5,2870.6-2024c-545.5,243.5-911.8,494.9-1096.9,748.1c-68.2,93.5-74,214.3-17.5,339c39,83.8,39,83.8-1.9,233.8c-52.6,189-97.4,278.6-194.8,383.8C1423-173.1,1354.8-153.6,670.9-89.3l-64.3,5.8V-221.8z"/><path d="M9286.3-1761c-91.6-89.6-46.8-243.5,81.8-274.7c103.3-27.3,220.2,89.6,192.9,192.9C9529.8-1714.2,9375.9-1669.4,9286.3-1761z"/><path d="M337.8-2594.8c-115-122.8,11.7-319.5,171.4-263c83.8,29.2,126.6,114.9,97.4,202.6c-25.3,77.9-68.2,105.2-161.7,105.2C402.1-2550,365.1-2565.6,337.8-2594.8z"/><path d="M980.7-2926c-37-39-42.9-68.2-42.9-210.4v-163.7l-200.7-200.7l-198.7-198.7H376.7c-153.9,0-165.6-3.9-220.2-56.5c-72.1-74-76-159.7-7.8-226c42.9-44.8,62.3-48.7,208.5-48.7H519l210.4-210.4l208.5-208.5v-161.7c0-146.1,3.9-165.6,48.7-208.5c60.4-62.3,146.1-62.3,218.2-1.9c50.6,44.8,54.6,58.4,60.4,220.2l7.8,171.4l196.8,200.7l198.7,198.7h161.7c146.1,0,165.6,3.9,208.5,48.7c33.1,31.2,48.7,68.2,48.7,111.1c-1.9,126.6-76,171.4-286.4,171.4h-152l-189,198.7l-190.9,200.7v142.2c0,148.1-31.2,243.5-87.7,265C1111.2-2867.6,1021.6-2881.2,980.7-2926z"/><path d="M8360.8-4044.4c-113-42.9-150-171.4-76-266.9c40.9-50.6,126.6-68.2,202.6-39c48.7,19.5,91.6,120.8,77.9,183.1C8545.9-4077.5,8440.7-4013.2,8360.8-4044.4z"/><path d="M5641-4252.8c-122.7-103.3-31.2-302,126.6-276.6c87.7,13.6,138.3,74,138.3,161.7C5906-4227.5,5750.1-4157.3,5641-4252.8z"/></g></g>
</svg>